<svg version="1.1" id="Layer_1" xmlns="http://www.w3.org/2000/svg" xmlns:xlink="http://www.w3.org/1999/xlink" x="0px" y="0px"
	 width="100%" viewBox="0 0 1024 1024" enable-background="new 0 0 1024 1024" xml:space="preserve">
<path fill="#000000" opacity="1.000000" stroke="none" 
	d="
M170.856323,524.773315 
	C169.101318,456.804108 184.291382,393.509033 218.867630,335.349091 
	C255.340363,273.999115 306.217072,228.460739 371.277679,198.851685 
	C399.614319,185.955688 429.120911,176.827408 459.820251,172.005981 
	C484.155457,168.184052 508.644867,166.859741 533.396423,168.437927 
	C580.565735,171.445480 625.181458,183.385651 667.300720,204.564896 
	C718.154602,230.136261 759.790588,266.474579 792.591919,313.012848 
	C819.723633,351.507172 837.952698,393.857361 848.062500,439.767883 
	C854.649109,469.678894 857.034790,500.053619 855.122742,530.512878 
	C850.308289,607.211487 824.460754,676.033203 774.599854,734.945557 
	C732.448608,784.748901 680.280701,820.404724 618.256836,841.148621 
	C595.196289,848.861328 571.514465,853.894348 547.275879,856.538879 
	C531.329041,858.278748 515.383362,858.924133 499.423279,858.254211 
	C457.283569,856.485657 416.793152,847.072205 378.323914,829.835754 
	C297.104004,793.444397 237.740768,734.698364 200.790787,653.711792 
	C187.404907,624.372864 179.038376,593.435303 174.489349,561.447449 
	C172.777771,549.411804 172.047760,537.318909 170.856323,524.773315 
M661.615051,236.964844 
	C619.754089,214.014526 574.853760,201.681290 527.277222,199.533859 
	C498.576111,198.238403 470.048401,200.910217 442.109833,207.756912 
	C375.737305,224.022415 319.624756,257.309967 275.465210,309.855682 
	C228.458954,365.788696 204.745712,430.771881 201.452225,503.402405 
	C200.447876,525.551697 202.458588,547.641846 206.623276,569.401672 
	C220.182388,640.245544 252.621155,700.729553 307.332764,748.304993 
	C354.703766,789.497314 409.347351,815.282471 471.924194,823.865173 
	C500.686615,827.810120 529.328735,827.675049 557.896851,823.359619 
	C594.231018,817.871033 628.584229,806.251404 660.888916,788.528992 
	C718.091003,757.147827 762.017212,712.839294 790.876892,654.260132 
	C815.279358,604.728271 826.884949,552.326416 823.908020,496.845734 
	C822.465332,469.957947 818.218567,443.619659 810.058289,418.054504 
	C784.634766,338.405518 734.977417,278.387543 661.615051,236.964844 
z"/>
<path fill="#000000" opacity="1.000000" stroke="none" 
	d="
M343.115234,369.100494 
	C373.897461,369.276337 404.195282,369.430054 434.492523,369.658508 
	C443.534302,369.726715 451.505554,375.911804 454.586853,384.989349 
	C457.744904,394.293152 455.457184,403.583954 447.571259,409.062378 
	C441.190979,413.494812 439.075623,419.045929 439.250000,426.497589 
	C439.577484,440.488708 439.588593,454.498474 439.264740,468.489716 
	C439.031830,478.551819 442.902435,485.546112 451.855164,490.377014 
	C470.325958,500.343842 485.568787,514.053284 497.674805,531.269409 
	C507.280701,544.930115 513.749084,559.976868 518.085815,576.008057 
	C518.565125,577.779968 518.910461,579.548462 520.409424,581.554993 
	C526.617676,576.301392 533.455322,572.059082 540.952209,568.861450 
	C551.849426,564.213379 563.396545,562.860779 575.000671,561.996094 
	C580.192017,561.609253 581.805298,559.336182 581.773865,554.386536 
	C581.621399,530.389709 582.009949,506.385620 581.563660,482.396057 
	C581.346497,470.723083 585.184326,461.618988 593.676270,453.656921 
	C603.145447,444.778595 611.829834,435.065186 620.907776,425.766083 
	C623.038086,423.583893 623.832703,421.511414 623.103638,418.214813 
	C619.903076,403.742828 626.345703,389.704254 638.599487,383.476410 
	C650.897766,377.225952 666.532043,379.935059 675.803528,389.923065 
	C684.556396,399.352386 686.107605,415.215607 679.400940,426.711884 
	C672.864624,437.916229 658.894226,444.157684 646.318726,440.725708 
	C641.559631,439.426880 638.651306,440.423981 635.462036,443.845642 
	C626.829956,453.106934 617.928406,462.118439 609.065369,471.162109 
	C606.329163,473.954163 605.246521,477.086060 605.267822,481.038635 
	C605.400818,505.702362 605.326965,530.367188 605.343994,555.031616 
	C605.348328,561.355225 605.864258,561.817810 612.185120,561.826233 
	C624.676208,561.843018 636.545288,558.980774 648.077026,554.332520 
	C651.325012,553.023315 652.734497,551.019104 652.651062,547.521729 
	C652.492004,540.859131 652.370300,534.181946 652.643372,527.527710 
	C652.819824,523.227112 651.373779,520.566895 647.688782,518.125244 
	C633.217285,508.536591 629.127869,490.380493 637.935547,476.503448 
	C644.328979,466.430206 657.181396,460.810730 668.593262,463.099091 
	C682.732849,465.934357 691.120239,474.228851 693.380005,487.611298 
	C695.685852,501.267151 690.587830,512.334717 678.529480,519.088501 
	C675.497559,520.786621 674.192688,522.853088 674.316162,526.250000 
	C674.477966,530.699646 674.355896,535.159607 674.355896,539.827820 
	C677.847473,539.065186 679.886963,537.059692 682.035706,535.309875 
	C704.854858,516.726868 720.359863,493.839935 726.087646,464.378052 
	C736.765076,409.456390 701.260132,355.333527 646.328796,344.450623 
	C609.903442,337.234070 577.265625,345.501465 550.634949,371.791687 
	C531.410034,390.770691 521.887268,414.525696 521.263367,441.817932 
	C520.725708,465.341431 526.272278,486.975403 539.624268,506.434967 
	C541.485474,509.147461 541.100098,510.833557 538.620972,512.651489 
	C533.381897,516.493286 528.158813,520.363525 523.061890,524.389954 
	C520.743958,526.221069 519.267273,526.245422 517.415955,523.681702 
	C506.426666,508.464142 498.840546,491.772766 495.734131,473.233521 
	C494.863678,468.038696 492.804932,464.613464 487.572998,463.306152 
	C482.576691,462.057648 477.586578,460.763702 472.652222,459.293518 
	C467.191528,457.666473 465.322632,454.243835 466.018158,448.689850 
	C467.668213,435.513489 469.220825,422.323273 470.631958,409.119354 
	C471.267700,403.170715 472.897522,400.818604 478.894684,399.610962 
	C484.584076,398.465332 490.337006,397.586823 496.095276,396.851440 
	C499.098877,396.467804 500.989410,395.007324 502.179016,392.380188 
	C505.687653,384.631348 509.698608,377.140076 514.049622,369.841949 
	C515.917480,366.708954 515.760010,363.976440 513.739807,361.046021 
	C510.053650,355.699127 506.422821,350.311218 502.895447,344.858582 
	C499.439423,339.516235 499.683472,336.096832 504.595825,332.217987 
	C515.051392,323.962158 525.674927,315.909546 536.426575,308.042847 
	C541.201355,304.549225 544.539734,305.116486 548.921387,309.256622 
	C552.796387,312.917908 556.566284,316.690125 560.402283,320.393005 
	C563.720764,323.596405 567.335938,324.590668 571.755066,322.437683 
	C579.246948,318.787781 586.996338,315.735901 595.142029,313.860138 
	C598.263489,313.141357 599.360596,310.820709 600.187195,308.240692 
	C602.114990,302.223480 603.939575,296.173309 605.816223,290.139648 
	C607.982849,283.173676 610.105286,281.391998 617.320740,281.695831 
	C629.451111,282.206543 641.574402,282.945190 653.687195,283.783234 
	C658.245483,284.098602 660.896423,286.712250 661.334778,291.469757 
	C661.913330,297.749146 662.755127,304.004730 663.304504,310.286194 
	C663.613708,313.821625 665.109680,316.178467 668.528992,317.402100 
	C676.881714,320.391205 684.742065,324.381348 691.985657,329.515900 
	C694.796753,331.508514 697.383423,331.511108 700.246826,329.593903 
	C705.228760,326.258087 710.288757,323.034363 715.385010,319.874908 
	C720.914734,316.446716 724.428772,316.752228 728.653625,321.510376 
	C736.616821,330.478973 744.468994,339.551880 752.155090,348.758636 
	C756.525085,353.993256 756.596069,357.502747 752.952515,363.317017 
	C750.213074,367.688599 747.371643,372.013184 744.299805,376.154083 
	C741.875671,379.421783 741.172058,382.369843 743.292236,386.201019 
	C746.839294,392.610748 749.666382,399.388519 751.808899,406.417755 
	C752.933228,410.106415 755.332947,412.270416 759.068604,413.208069 
	C764.710754,414.624298 770.315430,416.190369 775.930481,417.713562 
	C779.904480,418.791595 782.440308,421.175354 782.260620,425.518250 
	C781.655396,440.147491 780.966492,454.773438 780.270935,469.398773 
	C780.145508,472.035492 778.413635,473.494171 776.202454,474.628754 
	C771.507385,477.037689 766.375610,477.722748 761.274048,478.343658 
	C755.756409,479.015228 752.209351,481.162842 750.848511,487.136810 
	C749.260925,494.106354 746.400757,500.762878 742.817078,506.991455 
	C740.489258,511.037323 740.822693,514.523254 743.820007,517.967896 
	C747.538635,522.241577 751.260132,526.515930 754.858521,530.890259 
	C758.730591,535.597290 758.591858,539.231812 754.398804,543.703491 
	C745.509216,553.183716 736.583374,562.630310 727.627136,572.047607 
	C722.266174,577.684570 718.847595,577.880615 712.411255,573.169250 
	C708.245178,570.119751 704.002563,567.173645 699.872192,564.077209 
	C697.292908,562.143616 694.875916,561.849365 692.107910,563.760315 
	C684.141846,569.259766 675.694580,573.931946 666.870178,577.904236 
	C664.237000,579.089661 663.266113,580.961304 663.307251,583.819092 
	C663.427063,592.149963 663.447571,600.485413 663.298950,608.815308 
	C663.244812,611.847412 664.289856,613.634338 666.978516,615.172668 
	C679.173096,622.150085 684.995056,633.701416 683.248779,646.822937 
	C681.568176,659.451172 672.130432,670.286499 658.843018,672.803345 
	C643.890564,675.635681 631.089600,671.646606 623.562500,655.309753 
	C617.038452,641.150208 621.796509,623.763550 634.590515,616.061646 
	C639.556030,613.072388 641.135315,609.648560 640.746582,604.332703 
	C640.443542,600.187866 640.635803,596.004333 640.666443,591.838440 
	C640.690918,588.506836 639.267029,586.810059 635.786072,587.258850 
	C613.067017,590.187500 590.167786,588.073792 567.439697,589.577271 
	C549.039795,590.794434 536.114502,601.929443 525.884888,616.758423 
	C521.395386,623.266418 521.596619,630.615051 520.511169,637.703552 
	C516.812622,661.856995 507.102539,683.322388 491.721710,702.089844 
	C471.289062,727.021301 445.460266,743.870789 413.497894,749.498779 
	C369.980682,757.161377 330.768463,747.061707 297.591248,717.333679 
	C271.749420,694.178345 255.984818,664.951477 250.968842,630.666077 
	C242.681610,574.020935 268.945709,518.431152 318.807953,489.547821 
	C326.979736,484.814270 330.634247,478.299408 330.642334,469.247437 
	C330.655884,454.082123 330.616455,438.916748 330.660217,423.751556 
	C330.678040,417.569305 328.271423,412.551178 322.955780,409.542145 
	C312.966919,403.887756 311.252319,394.230927 313.174530,385.517059 
	C315.256317,376.079712 323.263306,370.224396 333.662506,369.611481 
	C336.651367,369.435303 339.641174,369.274719 343.115234,369.100494 
M292.538361,556.006836 
	C277.970917,582.857117 274.759888,611.247681 282.546844,640.542175 
	C296.846802,694.338623 344.159027,729.721558 403.875549,721.413391 
	C435.241211,717.049500 458.742401,699.631592 476.438995,673.906677 
	C480.886810,667.440979 484.559479,660.518005 487.334930,653.164429 
	C488.071228,651.213562 488.984283,647.915649 485.372986,648.803345 
	C480.568848,649.984253 475.279205,650.881592 472.644592,656.431519 
	C454.463562,694.730713 412.702484,711.258118 375.983307,706.466431 
	C329.792206,700.438782 294.483337,655.938171 296.585449,612.523560 
	C296.739777,609.336243 297.680756,607.166809 300.374634,605.557861 
	C322.539764,592.318787 345.448547,590.090942 368.812256,601.804871 
	C378.310455,606.566956 387.050781,612.818420 396.298065,618.108887 
	C408.010529,624.809875 420.672302,629.007385 434.162140,629.532715 
	C457.537445,630.443054 475.909210,620.322876 490.467224,602.534119 
	C492.138214,600.492371 493.005707,598.163208 492.533630,595.572876 
	C491.790833,591.497009 491.008057,587.413452 489.938416,583.414429 
	C481.786194,552.935669 463.695801,530.101196 435.802155,515.633667 
	C417.776520,506.284332 409.266815,491.931854 409.779358,472.148834 
	C410.388641,448.635132 407.123840,424.955780 412.788635,400.727753 
	C394.113312,400.165405 375.671844,400.164185 356.445007,400.776489 
	C358.719818,408.797882 360.307526,415.885651 360.294403,423.213135 
	C360.264862,439.707458 360.225891,456.202087 360.289032,472.696167 
	C360.358856,490.934052 353.212891,504.697052 336.537994,513.306885 
	C317.878082,522.941589 303.308136,537.053101 292.538361,556.006836 
M367.327423,647.886414 
	C366.795135,648.726135 366.174896,649.523254 365.744965,650.412476 
	C363.119171,655.842773 364.521820,662.153931 369.196838,666.146301 
	C373.837372,670.109253 380.013489,670.411438 385.287781,666.933472 
	C390.066956,663.782104 392.292938,657.530518 390.564178,652.115051 
	C387.569092,642.732727 376.248352,640.350037 367.327423,647.886414 
M660.081116,636.486572 
	C658.805420,635.436707 657.675842,634.072937 656.225647,633.397949 
	C652.415405,631.624390 648.378906,631.276245 644.931213,634.050659 
	C641.482117,636.826294 639.990723,640.604553 641.106567,645.118408 
	C642.209106,649.578308 645.002747,652.452148 649.462646,653.420044 
	C653.984131,654.401428 657.600281,652.630737 660.423889,649.096252 
	C663.597839,645.123169 663.027771,641.105469 660.081116,636.486572 
M658.321411,419.908234 
	C663.747681,415.475708 665.137268,411.014801 662.627197,406.085907 
	C660.007019,400.940887 654.000793,398.891205 648.526550,401.273987 
	C643.423401,403.495239 640.986267,409.094269 642.956482,414.070496 
	C645.251221,419.866211 651.371277,422.442291 658.321411,419.908234 
M673.701355,491.717529 
	C672.555115,486.128967 669.238953,482.858826 664.268677,482.415741 
	C658.641052,481.914032 653.672180,485.988586 653.200806,491.491577 
	C652.693787,497.409821 656.643066,502.396301 662.398499,503.104767 
	C668.018738,503.796539 673.021973,499.110840 673.701355,491.717529 
z"/>
<path fill="#000000" opacity="1.000000" stroke="none" 
	d="
M436.886871,254.674042 
	C446.155884,254.678421 447.161194,255.682388 447.154449,264.289276 
	C447.147156,273.605347 447.215790,282.921631 447.170807,292.237427 
	C447.140076,298.604126 445.507050,300.251862 439.208252,300.275421 
	C428.894073,300.313995 418.578949,300.323853 408.265350,300.227142 
	C402.147675,300.169769 400.689240,298.612823 400.670349,292.439056 
	C400.638794,282.124664 400.628632,271.809814 400.688324,261.495636 
	C400.720428,255.949371 401.934998,254.729065 407.458008,254.694656 
	C417.106720,254.634567 426.756073,254.676071 436.886871,254.674042 
z"/>
<path fill="#000000" opacity="1.000000" stroke="none" 
	d="
M394.321472,322.261353 
	C394.324432,329.874329 394.228455,337.017242 394.357513,344.156097 
	C394.427124,348.007324 392.801178,349.497711 388.980652,349.418365 
	C381.344482,349.259766 373.701141,349.273682 366.063965,349.403473 
	C362.152222,349.469940 360.689056,347.565155 360.702087,343.940338 
	C360.728363,336.633209 360.730133,329.325836 360.705780,322.018707 
	C360.693390,318.303894 362.414825,316.590179 366.198608,316.639709 
	C373.670624,316.737518 381.145691,316.724243 388.618011,316.634033 
	C392.234528,316.590363 394.367767,317.912750 394.321472,322.261353 
z"/>
<path fill="#000000" opacity="1.000000" stroke="none" 
	d="
M438.381744,579.925049 
	C441.661896,587.330383 441.726685,594.161255 436.490112,600.299438 
	C431.998169,605.564819 426.111633,607.395508 419.429871,605.889771 
	C411.764221,604.162354 407.733948,598.834656 406.115906,591.397217 
	C404.652252,584.669434 408.972137,576.110657 415.375671,573.136108 
	C423.711945,569.263916 432.146759,571.650696 438.381744,579.925049 
z"/>
<path fill="#000000" opacity="1.000000" stroke="none" 
	d="
M380.367157,527.858337 
	C389.765045,531.564453 394.323608,538.135681 392.990204,545.543945 
	C391.447998,554.112427 384.753052,560.193054 376.708191,560.332031 
	C367.238007,560.495605 360.226593,553.674255 360.137695,544.210754 
	C360.042816,534.113464 366.453674,527.602722 376.468536,527.640869 
	C377.628998,527.645325 378.789215,527.723206 380.367157,527.858337 
z"/>
</svg>